# xmcd CD database file
#
# Track frame offsets:
#	150
#	18612
#	30150
#	51997
#	59707
#	76342
#	91450
#	105762
#	118510
#	131492
#	142335
#	155287
#	170640
#	185170
#
# Disc length: 2649 seconds
#
# Revision: 0
# Processed by: cddbd v1.5PL3 Copyright (c) Steve Scherf et al.
# Submitted via: CDex 1.51
#
DISCID=be0a570e
DTITLE=ニューキーパイクス - No Point
DYEAR=1994
DGENRE=Hardcore
TTITLE0=New Peace
TTITLE1=It's All Over
TTITLE2=Bloom
TTITLE3=Nothing To Prove
TTITLE4=Naked Pride
TTITLE5=夏のにげ水
TTITLE6=Link
TTITLE7=Isolation Drift In New World
TTITLE8=Gain From The Question
TTITLE9=Nine Patience
TTITLE10=Neglected Problem
TTITLE11=Cut It Off
TTITLE12=Birth Step
TTITLE13=理想郷
EXTD=YEAR: 1994
EXTT0=
EXTT1=
EXTT2=
EXTT3=
EXTT4=
EXTT5=
EXTT6=
EXTT7=
EXTT8=
EXTT9=
EXTT10=
EXTT11=
EXTT12=
EXTT13=
PLAYORDER=
